<svg width="81" height="28" viewBox="0 0 81 28" fill="none" xmlns="http://www.w3.org/2000/svg">
  <path fill-rule="evenodd" clip-rule="evenodd" d="M18.16.25h-.13v4.02h4.83v-.2h-4.7V.26zm23.87 3.83v.2h4.83v-.2h-4.83zm-31.16 14.9a5.45 5.45 0 01-4.4 2.16C2.72 21.14 0 18.24 0 13.5c0-4.58 2.72-7.71 6.47-7.71 1.86 0 3.34.8 4.33 2.13V0h4.68v20.77h-4.61v-1.8zm-5.95-5.3c0 2.73 1.18 3.93 3.04 3.93 1.98 0 3.03-1.48 3.03-4.02v-.34c0-2.54-1.02-3.93-3.03-3.93-1.83 0-3.04 1.33-3.04 4.05v.31zM18.1 6.16h4.7v14.61h-4.7V6.16zm20.38 5.14c0 3.37-2.63 5.5-6.75 5.5a8.6 8.6 0 01-2.41-.3c-.65.06-1.09.37-1.09.77 0 .5.65.84 1.7.84h3.81c4.5 0 6.9 1.64 6.9 4.64 0 3.35-2.96 5.2-8.38 5.2-5.26 0-7.93-1.39-7.93-4.02 0-1.42.93-2.48 2.64-3.1-1.43-.37-2.26-1.3-2.26-2.53 0-1.24.92-2.23 2.56-2.76a4.96 4.96 0 01-2.2-4.18c0-3.19 2.89-5.54 6.85-5.54 2.47 0 4.49.96 5.6 2.5.53-1.35 1.52-2.16 3-2.16v4.09a2.13 2.13 0 00-2.13.18c.06.28.1.56.1.87zM36.8 23.46c0-1.08-1.02-1.54-3.56-1.54h-2.85c-1.42.12-2.38.68-2.38 1.64 0 1.02 1.42 1.6 4.33 1.6 2.88 0 4.46-.61 4.46-1.7zm-7.46-12.04c0 1.46.96 2.39 2.48 2.39 1.54 0 2.5-.9 2.5-2.42v-.15c0-1.46-1.02-2.45-2.5-2.45a2.37 2.37 0 00-2.48 2.45v.18zM42.1 6.16h4.7v14.61h-4.7V6.16zm15.45 11.18v3.43H54.1c-3.04-.22-3.63-1.6-3.69-4.2v-7.1h-1.95V6.16h1.95V3.31l4.61-2.26v5.11h2.64v3.31h-2.67v6.9c0 .66.31.93.96.97h1.61zm14.31-1.06c0 2.88-2.63 4.96-6.2 4.96-3.18 0-5.47-1.18-7.02-2.85l2.88-2.23a5.24 5.24 0 003.93 1.86c1.2 0 1.95-.47 1.95-1.3 0-.81-1.18-1.07-2.84-1.43l-.56-.12c-2.45-.53-5.14-1.55-5.14-4.55 0-2.79 2.6-4.83 6.07-4.83 3.1 0 5.32 1.14 6.8 2.88 0 .06-2.78 2.1-2.78 2.1a5.06 5.06 0 00-3.78-1.8c-1.17 0-1.88.47-1.88 1.25 0 .87.8 1.04 2.92 1.48l.14.03c2.5.5 5.51 1.46 5.51 4.55z" fill="#1E266D"/>
  <path d="M78.46 20.4a2.51 2.51 0 100-5.02 2.51 2.51 0 000 5.03zM78.46 10.36a2.51 2.51 0 100-5.03 2.51 2.51 0 000 5.03z" fill="#FF2E6A"/>
</svg>
